<svg version="1.1" id="svg739" inkscape:version="0.92.0 r15299" xmlns:cc="http://creativecommons.org/ns#" xmlns:dc="http://purl.org/dc/elements/1.1/" xmlns:inkscape="http://www.inkscape.org/namespaces/inkscape" xmlns:rdf="http://www.w3.org/1999/02/22-rdf-syntax-ns#" xmlns:sodipodi="http://sodipodi.sourceforge.net/DTD/sodipodi-0.dtd" xmlns:svg="http://www.w3.org/2000/svg" xmlns="http://www.w3.org/2000/svg" xmlns:xlink="http://www.w3.org/1999/xlink" x="0px" y="0px" viewBox="0 0 112.5 65.6" style="enable-background:new 0 0 112.5 65.6;" xml:space="preserve">
 <style type="text/css">
  .st0{fill:#FFFFFF;}
	.st1{fill:#A20F30;}
	.st2{fill:#E11631;}
	.st3{fill:#A6C3E9;}
	.st4{fill:#1C428B;}
 </style>
 <sodipodi:namedview bordercolor="#666666" borderopacity="1.0" fit-margin-bottom="0" fit-margin-left="0" fit-margin-right="0" fit-margin-top="0" id="base" inkscape:current-layer="layer1" inkscape:cx="125" inkscape:cy="66.469175" inkscape:document-units="mm" inkscape:pageopacity="0.0" inkscape:pageshadow="2" inkscape:window-height="744" inkscape:window-maximized="1" inkscape:window-width="1280" inkscape:window-x="-4" inkscape:window-y="-4" inkscape:zoom="3.208" pagecolor="#ffffff" showgrid="false" units="px">
 </sodipodi:namedview>
 <g id="layer1" transform="translate(220.58708,-167.25776)" inkscape:groupmode="layer" inkscape:label="Layer 1">
  <g id="g881" transform="translate(0.26458298,-0.26456519)">
   <path id="path46" inkscape:connector-curvature="0" class="st0" d="M-164.6,167.5L-164.6,167.5c-30.9,0-56.3,25.2-56.3,56.3v2.7
			h46.4c2.7,2.7,6,4.9,9.9,6.7l0,0c3.9-1.7,7.1-4,9.9-6.7h46.4v-2.7C-108.4,192.8-133.7,167.5-164.6,167.5">
   </path>
   <path id="path48" inkscape:connector-curvature="0" class="st1" d="M-164.6,230.2c12.1-5.9,16.5-16.9,17-29.9h-17V230.2">
   </path>
   <path id="path50" inkscape:connector-curvature="0" class="st2" d="M-164.6,230.2c-12.1-5.9-16.5-16.9-17-29.9h17V230.2">
   </path>
   <path id="path52" inkscape:connector-curvature="0" class="st3" d="M-189.3,223.8c-3.4-2.1-6.5-4.5-9.2-6.7
			c-10.7,2.9-19.6,6.7-19.6,6.7L-189.3,223.8z M-111,223.8c0,0-8.9-3.8-19.6-6.7c-2.7,2.2-5.9,4.6-9.2,6.7L-111,223.8z
			 M-184.6,209.2c-1.5-3.7-2.6-7.5-3.5-10.8c-10.3-3.9-19.8-6.1-19.8-6.1c0,0,5,8.3,11.9,16.9C-192.6,209-188.6,209-184.6,209.2
			L-184.6,209.2z M-144.6,209.2c4-0.2,8-0.2,11.4,0c6.9-8.6,11.9-16.9,11.9-16.9c0,0-9.5,2.2-19.8,6.1
			C-142,201.7-143.1,205.5-144.6,209.2L-144.6,209.2z M-157,200.2c3.1-2.5,6.3-4.8,9.2-6.7c0.5-11.1-0.3-20.7-0.3-20.7
			s-6.4,7.4-12.4,16.6C-159.2,192.6-158,196.4-157,200.2L-157,200.2z M-181.1,172.8c0,0,6.4,7.4,12.4,16.6c-1.2,3.2-2.5,7-3.5,10.9
			c-3.1-2.5-6.3-4.8-9.2-6.7C-182,182.5-181.1,172.8-181.1,172.8">
   </path>
   <path id="path54" inkscape:connector-curvature="0" class="st4" d="M-111,223.8c0-11.8-3.8-22.7-10.2-31.5c0,0-5,8.3-11.9,16.9
			c6.1,0.3,10.5,0.9,10.5,0.9c-2.8,2.6-5.1,4.7-8,6.9C-119.9,220-111,223.8-111,223.8">
   </path>
   <path id="path56" inkscape:connector-curvature="0" class="st4" d="M-121.3,192.3c-6.6-9-15.9-15.9-26.8-19.5
			c0,0,0.8,9.7,0.3,20.7c5.1-3.3,9-5.4,9-5.4s-0.8,4.4-2.4,10.3C-130.8,194.5-121.3,192.3-121.3,192.3">
   </path>
   <path id="path58" inkscape:connector-curvature="0" class="st4" d="M-181.1,172.8c0,0,6.4,7.4,12.4,16.6c2.1-5.6,4.1-9.7,4.1-9.7
			s2,4.1,4.1,9.7c6-9.2,12.4-16.6,12.4-16.6c-5.2-1.7-10.8-2.6-16.6-2.6C-170.4,170.2-175.9,171.1-181.1,172.8">
   </path>
   <path id="path60" inkscape:connector-curvature="0" class="st4" d="M-207.9,192.3c-6.4,8.8-10.2,19.7-10.2,31.5
			c0,0,8.9-3.8,19.6-6.7c-2.9-2.3-5.2-4.3-8-6.9c0,0,4.5-0.6,10.5-0.9C-202.9,200.6-207.9,192.3-207.9,192.3">
   </path>
   <path id="path62" inkscape:connector-curvature="0" class="st4" d="M-207.9,192.3c0,0,9.5,2.2,19.8,6.1
			c-1.6-5.8-2.4-10.3-2.4-10.3s4,2.1,9,5.4c-0.5-11.1,0.3-20.7,0.3-20.7C-192,176.3-201.3,183.2-207.9,192.3">
   </path>
  </g>
 </g>
</svg>