<svg xmlns="http://www.w3.org/2000/svg" viewBox="0 0 64 64">
  <rect width="64" height="64" rx="12" fill="#ffffff"/>
  <svg x="5" y="17" width="54" height="31.5" viewBox="0 0 112.5 65.6" preserveAspectRatio="xMidYMid meet">
    <style>.st0{fill:#FFFFFF}.st1{fill:#A20F30}.st2{fill:#E11631}.st3{fill:#A6C3E9}.st4{fill:#1C428B}</style>
    <g transform="translate(220.58708,-167.25776)">
      <g transform="translate(0.26458298,-0.26456519)">
        <path class="st0" d="M-164.6,167.5L-164.6,167.5c-30.9,0-56.3,25.2-56.3,56.3v2.7h46.4c2.7,2.7,6,4.9,9.9,6.7l0,0c3.9-1.7,7.1-4,9.9-6.7h46.4v-2.7C-108.4,192.8-133.7,167.5-164.6,167.5"/>
        <path class="st1" d="M-164.6,230.2c12.1-5.9,16.5-16.9,17-29.9h-17V230.2"/>
        <path class="st2" d="M-164.6,230.2c-12.1-5.9-16.5-16.9-17-29.9h17V230.2"/>
        <path class="st3" d="M-189.3,223.8c-3.4-2.1-6.5-4.5-9.2-6.7c-10.7,2.9-19.6,6.7-19.6,6.7L-189.3,223.8z M-111,223.8c0,0-8.9-3.8-19.6-6.7c-2.7,2.2-5.9,4.6-9.2,6.7L-111,223.8z M-184.6,209.2c-1.5-3.7-2.6-7.5-3.5-10.8c-10.3-3.9-19.8-6.1-19.8-6.1c0,0,5,8.3,11.9,16.9C-192.6,209-188.6,209-184.6,209.2L-184.6,209.2z M-144.6,209.2c4-0.2,8-0.2,11.4,0c6.9-8.6,11.9-16.9,11.9-16.9c0,0-9.5,2.2-19.8,6.1C-142,201.7-143.1,205.5-144.6,209.2L-144.6,209.2z M-157,200.2c3.1-2.5,6.3-4.8,9.2-6.7c0.5-11.1-0.3-20.7-0.3-20.7s-6.4,7.4-12.4,16.6C-159.2,192.6-158,196.4-157,200.2L-157,200.2z M-181.1,172.8c0,0,6.4,7.4,12.4,16.6c-1.2,3.2-2.5,7-3.5,10.9c-3.1-2.5-6.3-4.8-9.2-6.7C-182,182.5-181.1,172.8-181.1,172.8"/>
        <path class="st4" d="M-111,223.8c0-11.8-3.8-22.7-10.2-31.5c0,0-5,8.3-11.9,16.9c6.1,0.3,10.5,0.9,10.5,0.9c-2.8,2.6-5.1,4.7-8,6.9C-119.9,220-111,223.8-111,223.8"/>
        <path class="st4" d="M-121.3,192.3c-6.6-9-15.9-15.9-26.8-19.5c0,0,0.8,9.7,0.3,20.7c5.1-3.3,9-5.4,9-5.4s-0.8,4.4-2.4,10.3C-130.8,194.5-121.3,192.3-121.3,192.3"/>
        <path class="st4" d="M-181.1,172.8c0,0,6.4,7.4,12.4,16.6c2.1-5.6,4.1-9.7,4.1-9.7s2,4.1,4.1,9.7c6-9.2,12.4-16.6,12.4-16.6c-5.2-1.7-10.8-2.6-16.6-2.6C-170.4,170.2-175.9,171.1-181.1,172.8"/>
        <path class="st4" d="M-207.9,192.3c-6.4,8.8-10.2,19.7-10.2,31.5c0,0,8.9-3.8,19.6-6.7c-2.9-2.3-5.2-4.3-8-6.9c0,0,4.5-0.6,10.5-0.9C-202.9,200.6-207.9,192.3-207.9,192.3"/>
        <path class="st4" d="M-207.9,192.3c0,0,9.5,2.2,19.8,6.1c-1.6-5.8-2.4-10.3-2.4-10.3s4,2.1,9,5.4c-0.5-11.1,0.3-20.7,0.3-20.7C-192,176.3-201.3,183.2-207.9,192.3"/>
      </g>
    </g>
  </svg>
</svg>
